<svg width="0" height="0" class="hidden">
  <symbol viewBox="0 0 14 14" fill="none" xmlns="http://www.w3.org/2000/svg" id="user">
    <path fill-rule="evenodd" clip-rule="evenodd" d="M2.604 9.02a2.917 2.917 0 0 1 2.063-.853h4.666a2.917 2.917 0 0 1 2.917 2.916v1.167a.583.583 0 1 1-1.167 0v-1.167a1.75 1.75 0 0 0-1.75-1.75H4.667a1.75 1.75 0 0 0-1.75 1.75v1.167a.583.583 0 1 1-1.167 0v-1.167c0-.773.307-1.515.854-2.062zM7 2.333a1.75 1.75 0 1 0 0 3.5 1.75 1.75 0 0 0 0-3.5zm-2.917 1.75a2.917 2.917 0 1 1 5.834 0 2.917 2.917 0 0 1-5.834 0z" fill="#fff"></path>
  </symbol>
  <symbol viewBox="0 0 8 8" fill="none" xmlns="http://www.w3.org/2000/svg" id="star">
    <path fill-rule="evenodd" clip-rule="evenodd" d="M4 .333c.127 0 .243.072.299.186l.952 1.93 2.13.311a.333.333 0 0 1 .185.569l-1.541 1.5.363 2.121a.333.333 0 0 1-.483.352L4 6.3 2.095 7.302a.333.333 0 0 1-.484-.352l.364-2.12L.434 3.329a.333.333 0 0 1 .184-.569l2.13-.311.953-1.93A.333.333 0 0 1 4 .333zM4 1.42L3.269 2.9a.333.333 0 0 1-.25.183l-1.636.24 1.183 1.152a.333.333 0 0 1 .096.295l-.28 1.627 1.463-.769a.333.333 0 0 1 .31 0l1.462.77-.279-1.628a.333.333 0 0 1 .096-.295l1.183-1.153-1.635-.239a.333.333 0 0 1-.251-.182L4 1.42z" fill="#F2994A"></path>
    <path d="M2.333 5L1 3l2-.333L4 1l1 1.667 2 .666-1.333 1.334L6 7 4 6 2 7l.333-2z" fill="#F2994A"></path>
  </symbol>
  <symbol viewBox="0 0 16 16" fill="none" xmlns="http://www.w3.org/2000/svg" id="search">
    <path fill-rule="evenodd" clip-rule="evenodd" d="M7.333 2.667a4.667 4.667 0 1 0 0 9.333 4.667 4.667 0 0 0 0-9.333zm-6 4.666a6 6 0 1 1 12 0 6 6 0 0 1-12 0z" fill="#fff"></path>
    <path fill-rule="evenodd" clip-rule="evenodd" d="M10.629 10.629c.26-.26.682-.26.942 0l2.9 2.9a.667.667 0 1 1-.942.942l-2.9-2.9a.667.667 0 0 1 0-.942z" fill="#fff"></path>
  </symbol>
  <symbol viewBox="0 0 20 20" fill="none" xmlns="http://www.w3.org/2000/svg" id="email">
    <path d="M16.667 3.333H3.333c-.916 0-1.658.75-1.658 1.667l-.008 10c0 .917.75 1.667 1.666 1.667h13.334c.916 0 1.666-.75 1.666-1.667V5c0-.917-.75-1.667-1.666-1.667zm-.334 3.542l-5.891 3.683a.843.843 0 0 1-.884 0L3.667 6.875a.708.708 0 1 1 .75-1.2L10 9.167l5.583-3.492a.708.708 0 1 1 .75 1.2z" fill="#BDBDBD"></path>
  </symbol>
  <symbol viewBox="0 0 23 23" fill="none" xmlns="http://www.w3.org/2000/svg" id="phone-call-filled">
    <path d="M19.167 10.54h1.916c0-4.915-3.711-8.623-8.634-8.623v1.916c3.893 0 6.718 2.82 6.718 6.708z" fill="#BDBDBD"></path>
    <path d="M12.458 7.667c2.016 0 2.875.86 2.875 2.875h1.917c0-3.091-1.701-4.792-4.792-4.792v1.917zm3.28 5.216a.96.96 0 0 0-1.333.041l-2.294 2.358c-.552-.105-1.661-.45-2.804-1.59-1.142-1.144-1.488-2.256-1.59-2.805l2.356-2.294a.959.959 0 0 0 .041-1.333l-3.54-3.893a.958.958 0 0 0-1.334-.084L3.16 5.067a.958.958 0 0 0-.277.622c-.015.24-.289 5.914 4.112 10.317 3.839 3.838 8.648 4.119 9.972 4.119.194 0 .313-.006.344-.008a.95.95 0 0 0 .621-.279l1.783-2.08a.958.958 0 0 0-.083-1.333l-3.894-3.542z" fill="#BDBDBD"></path>
  </symbol>
  <symbol viewBox="0 0 24 24" fill="none" xmlns="http://www.w3.org/2000/svg" id="location">
    <path d="M12 2C8.13 2 5 5.13 5 9c0 4.17 4.42 9.92 6.24 12.11.4.48 1.13.48 1.53 0C14.58 18.92 19 13.17 19 9c0-3.87-3.13-7-7-7zm0 9.5a2.5 2.5 0 1 1 0-5 2.5 2.5 0 0 1 0 5z" fill="#BDBDBD"></path>
  </symbol>
  <symbol viewBox="0 0 20 20" fill="none" xmlns="http://www.w3.org/2000/svg" id="inst">
    <path d="M10 20a9.811 9.811 0 0 1-3.887-.791c-1.237-.527-2.301-1.237-3.193-2.129-.892-.892-1.602-1.956-2.129-3.193A9.81 9.81 0 0 1 0 10c0-1.354.264-2.65.791-3.887S2.028 3.812 2.92 2.92c.892-.892 1.956-1.602 3.193-2.13A9.81 9.81 0 0 1 10 0a9.81 9.81 0 0 1 3.887.791c1.237.527 2.301 1.237 3.193 2.129.892.892 1.602 1.956 2.129 3.193A9.811 9.811 0 0 1 20 10c0 1.354-.264 2.65-.791 3.887s-1.237 2.301-2.129 3.193c-.892.892-1.956 1.602-3.193 2.129A9.811 9.811 0 0 1 10 20zm5-13.75c0-.339-.12-.632-.361-.879A1.192 1.192 0 0 0 13.75 5h-7.5c-.339 0-.632.124-.879.371S5 5.911 5 6.25V7.5h2.227c.755-.833 1.68-1.25 2.773-1.25 1.094 0 2.018.417 2.773 1.25H15V6.25zM7.5 10c0 .69.244 1.28.732 1.768A2.409 2.409 0 0 0 10 12.5c.69 0 1.28-.244 1.768-.732A2.409 2.409 0 0 0 12.5 10c0-.69-.244-1.28-.732-1.768A2.409 2.409 0 0 0 10 7.5c-.69 0-1.28.244-1.768.732A2.409 2.409 0 0 0 7.5 10zM15 8.75h-1.484c.156.43.234.846.234 1.25 0 1.042-.365 1.927-1.094 2.656-.729.73-1.614 1.094-2.656 1.094s-1.927-.365-2.656-1.094C6.614 11.927 6.25 11.042 6.25 10c0-.404.078-.82.234-1.25H5v5c0 .352.12.648.361.889.241.24.537.361.889.361h7.5c.352 0 .648-.12.889-.361.24-.241.361-.537.361-.889v-5z" fill="#BDBDBD"></path>
  </symbol>
  <symbol viewBox="0 0 21 21" fill="none" xmlns="http://www.w3.org/2000/svg" id="youtube">
    <path d="M12.183 10.325l-2.358-1.1c-.206-.096-.375.01-.375.239v2.072c0 .228.169.335.375.24l2.357-1.1c.207-.097.207-.255.001-.351zM10.5.42C4.933.42.42 4.933.42 10.5S4.933 20.58 10.5 20.58s10.08-4.513 10.08-10.08S16.067.42 10.5.42zm0 14.175c-5.16 0-5.25-.465-5.25-4.095s.09-4.095 5.25-4.095 5.25.465 5.25 4.095-.09 4.095-5.25 4.095z" fill="#BDBDBD"></path>
  </symbol>
  <symbol viewBox="0 0 24 24" fill="none" xmlns="http://www.w3.org/2000/svg" id="fb">
    <path d="M12.001 2.002c-5.522 0-10 4.477-10 9.999.001 4.99 3.657 9.126 8.438 9.879v-6.988h-2.54v-2.891h2.54V9.798c0-2.508 1.493-3.891 3.776-3.891 1.094 0 2.24.195 2.24.195V8.56h-1.264c-1.24 0-1.628.772-1.628 1.563v1.875h2.771l-.443 2.891h-2.328v6.988C18.344 21.129 22 16.992 22 12.001c0-5.522-4.477-10-9.999-10z" fill="#BDBDBD"></path>
  </symbol>
  <symbol viewBox="0 0 14 14" fill="none" xmlns="http://www.w3.org/2000/svg" id="phone-call">
    <g clip-path="url(#clip0)">
      <path d="M11.667 13.358h-.175c-1.867-.233-3.734-.875-5.309-1.866a12.267 12.267 0 0 1-3.675-3.675A11.617 11.617 0 0 1 .642 2.508c0-.466.116-.933.408-1.283.292-.35.7-.583 1.167-.642h1.925A1.76 1.76 0 0 1 5.892 2.1c.058.525.175 1.05.35 1.517.233.641.058 1.341-.409 1.866l-.408.409c.7 1.05 1.575 1.983 2.683 2.683l.409-.408a1.823 1.823 0 0 1 1.866-.409 6.39 6.39 0 0 0 1.517.35 1.761 1.761 0 0 1 1.517 1.75v1.75c0 .467-.175.934-.525 1.225-.35.292-.759.525-1.225.525zM4.142 1.75h-1.75c-.175 0-.35.117-.467.233a.843.843 0 0 0-.117.409A10.972 10.972 0 0 0 3.5 7.175c.875 1.342 1.983 2.508 3.325 3.325a10.973 10.973 0 0 0 4.783 1.692c.234 0 .35-.059.467-.175a.53.53 0 0 0 .175-.409v-1.75c0-.291-.233-.525-.525-.583-.583-.058-1.167-.233-1.75-.467-.233-.058-.467-.058-.642.117l-.758.758a.62.62 0 0 1-.7.117 9.572 9.572 0 0 1-3.733-3.733c-.059-.234 0-.525.175-.7l.758-.759c.117-.116.175-.408.117-.583-.234-.583-.35-1.167-.467-1.75 0-.292-.292-.525-.583-.525zm6.941 4.083a.568.568 0 0 1-.583-.466c-.175-.934-.933-1.634-1.867-1.867a.605.605 0 0 1-.466-.7.605.605 0 0 1 .7-.467c1.4.292 2.508 1.342 2.741 2.742.059.292-.116.642-.466.7 0 0 0 .058-.059.058zm2.334-.058c-.292 0-.525-.233-.584-.525-.233-2.158-1.925-3.85-4.141-4.142a.683.683 0 0 1-.525-.641c0-.292.35-.525.641-.525 2.742.291 4.842 2.391 5.134 5.133.058.292-.175.583-.525.642.058.058 0 .058 0 .058z" fill="#fff"></path>
    </g>
    <defs>
      <clipPath id="clip0">
        <path fill="#fff" d="M0 0h14v14H0z"></path>
      </clipPath>
    </defs>
  </symbol>
  <symbol viewBox="0 0 14 14" fill="none" xmlns="http://www.w3.org/2000/svg" id="home">
    <path fill-rule="evenodd" clip-rule="evenodd" d="M6.642.706a.583.583 0 0 1 .716 0l5.25 4.084c.142.11.225.28.225.46v6.417a1.75 1.75 0 0 1-1.75 1.75H2.917a1.75 1.75 0 0 1-1.75-1.75V5.25c0-.18.083-.35.225-.46L6.642.706zm-4.309 4.83v6.13a.583.583 0 0 0 .584.584h8.166a.583.583 0 0 0 .584-.583V5.535L7 1.905l-4.667 3.63z" fill="#fff"></path>
    <path fill-rule="evenodd" clip-rule="evenodd" d="M4.667 7c0-.322.26-.583.583-.583h3.5c.322 0 .583.26.583.583v5.833a.583.583 0 1 1-1.166 0v-5.25H5.833v5.25a.583.583 0 1 1-1.166 0V7z" fill="#fff"></path>
  </symbol>
</svg>